KRS.PY-BlackNarrowMid.ufo
<glyph name="four" format="2">
  <advance width="884.0"/>
  <unicode hex="0034"/>
  <outline>
    <contour>
      <point x="456.0" y="0.0" type="line"/>
      <point x="795.0" y="0.0" type="line"/>
      <point x="795.0" y="312.0" type="line"/>
      <point x="859.0" y="312.0" type="line"/>
      <point x="859.0" y="397.0" type="line"/>
      <point x="795.0" y="397.0" type="line"/>
      <point x="795.0" y="650.0" type="line"/>
      <point x="456.0" y="650.0" type="line"/>
      <point x="456.0" y="397.0" type="line"/>
      <point x="383.0" y="397.0" type="line"/>
      <point x="383.0" y="467.0" type="line"/>
      <point x="435.0" y="750.0" type="line"/>
      <point x="96.0" y="750.0" type="line"/>
      <point x="44.0" y="465.0" type="line"/>
      <point x="44.0" y="312.0" type="line"/>
      <point x="456.0" y="312.0" type="line"/>
    </contour>
  </outline>
</glyph>
<glyph name="six" format="2">
  <advance width="841.0"/>
  <unicode hex="0036"/>
  <outline>
    <contour>
      <point x="36.0" y="0.0" type="line"/>
      <point x="800.0" y="0.0" type="line"/>
      <point x="800.0" y="392.0" type="line"/>
      <point x="375.0" y="392.0" type="line"/>
      <point x="375.0" y="507.0" type="line"/>
      <point x="411.0" y="648.0" type="line"/>
      <point x="441.0" y="648.0" type="line"/>
      <point x="441.0" y="526.0" type="line"/>
      <point x="780.0" y="526.0" type="line"/>
      <point x="780.0" y="750.0" type="line"/>
      <point x="111.0" y="750.0" type="line"/>
      <point x="36.0" y="586.0" type="line"/>
    </contour>
    <contour>
      <point x="375.0" y="102.0" type="line"/>
      <point x="375.0" y="306.0" type="line"/>
      <point x="451.0" y="306.0" type="line"/>
      <point x="451.0" y="102.0" type="line"/>
    </contour>
  </outline>
</glyph>
<glyph name="eight" format="2">
  <advance width="804.0"/>
  <unicode hex="0038"/>
  <outline>
    <contour>
      <point x="21.0" y="0.0" type="line"/>
      <point x="783.0" y="0.0" type="line"/>
      <point x="783.0" y="300.0" type="line"/>
      <point x="590.0" y="365.0" type="line"/>
      <point x="590.0" y="379.0" type="line"/>
      <point x="781.0" y="435.0" type="line"/>
      <point x="781.0" y="750.0" type="line"/>
      <point x="22.0" y="750.0" type="line"/>
      <point x="22.0" y="435.0" type="line"/>
      <point x="213.0" y="379.0" type="line"/>
      <point x="213.0" y="365.0" type="line"/>
      <point x="21.0" y="300.0" type="line"/>
    </contour>
    <contour>
      <point x="360.0" y="102.0" type="line"/>
      <point x="360.0" y="318.0" type="line"/>
      <point x="386.0" y="327.0" type="line"/>
      <point x="417.0" y="327.0" type="line"/>
      <point x="444.0" y="318.0" type="line"/>
      <point x="444.0" y="102.0" type="line"/>
    </contour>
    <contour>
      <point x="386.0" y="416.0" type="line"/>
      <point x="361.0" y="422.0" type="line"/>
      <point x="361.0" y="648.0" type="line"/>
      <point x="443.0" y="648.0" type="line"/>
      <point x="443.0" y="422.0" type="line"/>
      <point x="417.0" y="416.0" type="line"/>
    </contour>
  </outline>
</glyph>
<glyph name="nine" format="2">
  <advance width="835.0"/>
  <unicode hex="0039"/>
  <outline>
    <contour>
      <point x="40.0" y="1.0" type="line"/>
      <point x="799.0" y="1.0" type="line"/>
      <point x="799.0" y="536.0" type="line"/>
      <point x="716.0" y="752.0" type="line"/>
      <point x="38.0" y="751.0" type="line"/>
      <point x="38.0" y="327.0" type="line"/>
      <point x="461.0" y="327.0" type="line"/>
      <point x="461.0" y="103.0" type="line"/>
      <point x="379.0" y="103.0" type="line"/>
      <point x="379.0" y="201.0" type="line"/>
      <point x="40.0" y="201.0" type="line"/>
    </contour>
    <contour>
      <point x="377.0" y="395.0" type="line"/>
      <point x="377.0" y="649.0" type="line"/>
      <point x="424.0" y="649.0" type="line"/>
      <point x="461.0" y="508.0" type="line"/>
      <point x="461.0" y="395.0" type="line"/>
    </contour>
  </outline>
</glyph>
<glyph name="A" format="2">
  <advance width="844.0"/>
  <unicode hex="0041"/>
  <outline>
    <contour>
      <point x="36.0" y="0.0" type="line"/>
      <point x="375.0" y="0.0" type="line"/>
      <point x="375.0" y="269.0" type="line"/>
      <point x="464.0" y="269.0" type="line"/>
      <point x="464.0" y="0.0" type="line"/>
      <point x="803.0" y="0.0" type="line"/>
      <point x="803.0" y="750.0" type="line"/>
      <point x="121.0" y="750.0" type="line"/>
      <point x="36.0" y="470.0" type="line"/>
    </contour>
    <contour>
      <point x="375.0" y="405.0" type="line"/>
      <point x="375.0" y="463.0" type="line"/>
      <point x="421.0" y="658.0" type="line"/>
      <point x="464.0" y="658.0" type="line"/>
      <point x="464.0" y="405.0" type="line"/>
    </contour>
  </outline>
</glyph>
<glyph name="B" format="2">
  <advance width="831.0"/>
  <unicode hex="0042"/>
  <outline>
    <contour>
      <point x="41.0" y="0.0" type="line"/>
      <point x="810.0" y="0.0" type="line"/>
      <point x="810.0" y="310.0" type="line"/>
      <point x="680.0" y="367.0" type="line"/>
      <point x="680.0" y="380.0" type="line"/>
      <point x="799.0" y="432.0" type="line"/>
      <point x="799.0" y="750.0" type="line"/>
      <point x="41.0" y="750.0" type="line"/>
    </contour>
    <contour>
      <point x="380.0" y="117.0" type="line"/>
      <point x="380.0" y="342.0" type="line"/>
      <point x="417.0" y="342.0" type="line"/>
      <point x="471.0" y="319.0" type="line"/>
      <point x="471.0" y="117.0" type="line"/>
    </contour>
    <contour>
      <point x="380.0" y="408.0" type="line"/>
      <point x="380.0" y="633.0" type="line"/>
      <point x="460.0" y="633.0" type="line"/>
      <point x="460.0" y="432.0" type="line"/>
      <point x="417.0" y="408.0" type="line"/>
    </contour>
  </outline>
</glyph>
<glyph name="J" format="2">
  <advance width="829.0"/>
  <unicode hex="004A"/>
  <outline>
    <contour>
      <point x="90.0" y="0.0" type="line"/>
      <point x="788.0" y="0.0" type="line"/>
      <point x="788.0" y="750.0" type="line"/>
      <point x="44.0" y="750.0" type="line"/>
      <point x="44.0" y="653.0" type="line"/>
      <point x="449.0" y="653.0" type="line"/>
      <point x="449.0" y="97.0" type="line"/>
      <point x="407.0" y="97.0" type="line"/>
      <point x="369.0" y="317.0" type="line"/>
      <point x="28.0" y="317.0" type="line"/>
    </contour>
  </outline>
</glyph>
<glyph name="L" format="2">
  <advance width="714.0"/>
  <unicode hex="004C"/>
  <outline>
    <contour>
      <point x="41.0" y="0.0" type="line"/>
      <point x="709.0" y="-2.0" type="line"/>
      <point x="709.0" y="144.0" type="line"/>
      <point x="380.0" y="146.0" type="line"/>
      <point x="380.0" y="750.0" type="line"/>
      <point x="41.0" y="750.0" type="line"/>
    </contour>
  </outline>
</glyph>
<glyph name="M" format="2">
  <advance width="1278.0"/>
  <unicode hex="004D"/>
  <outline>
    <contour>
      <point x="51.0" y="0.0" type="line"/>
      <point x="355.0" y="0.0" type="line"/>
      <point x="355.0" y="619.0" type="line"/>
      <point x="360.0" y="619.0" type="line"/>
      <point x="437.0" y="90.0" type="line"/>
      <point x="828.0" y="90.0" type="line"/>
      <point x="906.0" y="620.0" type="line"/>
      <point x="911.0" y="620.0" type="line"/>
      <point x="911.0" y="0.0" type="line"/>
      <point x="1227.0" y="0.0" type="line"/>
      <point x="1227.0" y="750.0" type="line"/>
      <point x="706.0" y="750.0" type="line"/>
      <point x="644.0" y="205.0" type="line"/>
      <point x="634.0" y="205.0" type="line"/>
      <point x="571.0" y="750.0" type="line"/>
      <point x="51.0" y="750.0" type="line"/>
    </contour>
  </outline>
</glyph>
<glyph name="Q" format="2">
  <advance width="849.0"/>
  <unicode hex="0051"/>
  <outline>
    <contour>
      <point x="38.0" y="0.0" type="line"/>
      <point x="808.0" y="0.0" type="line"/>
      <point x="808.0" y="750.0" type="line"/>
      <point x="101.0" y="750.0" type="line"/>
      <point x="38.0" y="545.0" type="line"/>
    </contour>
    <contour>
      <point x="372.0" y="-138.0" type="line"/>
      <point x="558.0" y="-138.0" type="line"/>
      <point x="514.0" y="10.0" type="line"/>
      <point x="330.0" y="10.0" type="line"/>
    </contour>
    <contour>
      <point x="377.0" y="117.0" type="line"/>
      <point x="377.0" y="467.0" type="line"/>
      <point x="413.0" y="653.0" type="line"/>
      <point x="469.0" y="653.0" type="line"/>
      <point x="469.0" y="117.0" type="line"/>
    </contour>
  </outline>
</glyph>
<glyph name="R" format="2">
  <advance width="839.0"/>
  <unicode hex="0052"/>
  <outline>
    <contour>
      <point x="41.0" y="0.0" type="line"/>
      <point x="380.0" y="0.0" type="line"/>
      <point x="380.0" y="328.0" type="line"/>
      <point x="416.0" y="328.0" type="line"/>
      <point x="468.0" y="304.0" type="line"/>
      <point x="468.0" y="0.0" type="line"/>
      <point x="806.0" y="0.0" type="line"/>
      <point x="805.0" y="324.0" type="line"/>
      <point x="662.0" y="371.0" type="line"/>
      <point x="662.0" y="383.0" type="line"/>
      <point x="802.0" y="404.0" type="line"/>
      <point x="802.0" y="750.0" type="line"/>
      <point x="41.0" y="750.0" type="line"/>
    </contour>
    <contour>
      <point x="380.0" y="414.0" type="line"/>
      <point x="380.0" y="633.0" type="line"/>
      <point x="463.0" y="633.0" type="line"/>
      <point x="463.0" y="430.0" type="line"/>
      <point x="419.0" y="414.0" type="line"/>
    </contour>
  </outline>
</glyph>
<glyph name="S" format="2">
  <advance width="800.0"/>
  <unicode hex="0053"/>
  <outline>
    <contour>
      <point x="29.0" y="0.0" type="line"/>
      <point x="756.0" y="0.0" type="line"/>
      <point x="756.0" y="421.0" type="line"/>
      <point x="370.0" y="421.0" type="line"/>
      <point x="370.0" y="499.0" type="line"/>
      <point x="408.0" y="604.0" type="line"/>
      <point x="750.0" y="604.0" type="line"/>
      <point x="750.0" y="750.0" type="line"/>
      <point x="116.0" y="750.0" type="line"/>
      <point x="31.0" y="545.0" type="line"/>
      <point x="31.0" y="259.0" type="line"/>
      <point x="417.0" y="259.0" type="line"/>
      <point x="417.0" y="146.0" type="line"/>
      <point x="29.0" y="146.0" type="line"/>
    </contour>
  </outline>
</glyph>
<glyph name="U" format="2">
  <advance width="846.0"/>
  <unicode hex="0055"/>
  <outline>
    <contour>
      <point x="805.0" y="0.0" type="line"/>
      <point x="805.0" y="750.0" type="line"/>
      <point x="466.0" y="750.0" type="line"/>
      <point x="466.0" y="102.0" type="line"/>
      <point x="418.0" y="102.0" type="line"/>
      <point x="377.0" y="256.0" type="line"/>
      <point x="377.0" y="750.0" type="line"/>
      <point x="38.0" y="750.0" type="line"/>
      <point x="38.0" y="215.0" type="line"/>
      <point x="115.0" y="0.0" type="line"/>
    </contour>
  </outline>
</glyph>
<glyph name="X" format="2">
  <advance width="884.0"/>
  <unicode hex="0058"/>
  <outline>
    <contour>
      <point x="33.0" y="0.0" type="line"/>
      <point x="372.0" y="0.0" type="line"/>
      <point x="372.0" y="300.0" type="line"/>
      <point x="410.0" y="319.0" type="line"/>
      <point x="475.0" y="319.0" type="line"/>
      <point x="512.0" y="300.0" type="line"/>
      <point x="512.0" y="0.0" type="line"/>
      <point x="851.0" y="0.0" type="line"/>
      <point x="851.0" y="306.0" type="line"/>
      <point x="680.0" y="356.0" type="line"/>
      <point x="680.0" y="365.0" type="line"/>
      <point x="850.0" y="407.0" type="line"/>
      <point x="850.0" y="750.0" type="line"/>
      <point x="511.0" y="750.0" type="line"/>
      <point x="511.0" y="427.0" type="line"/>
      <point x="475.0" y="410.0" type="line"/>
      <point x="410.0" y="410.0" type="line"/>
      <point x="374.0" y="427.0" type="line"/>
      <point x="374.0" y="750.0" type="line"/>
      <point x="35.0" y="750.0" type="line"/>
      <point x="35.0" y="407.0" type="line"/>
      <point x="205.0" y="366.0" type="line"/>
      <point x="205.0" y="356.0" type="line"/>
      <point x="33.0" y="306.0" type="line"/>
    </contour>
  </outline>
</glyph>
<glyph name="Y" format="2">
  <advance width="822.0"/>
  <unicode hex="0059"/>
  <outline>
    <contour>
      <point x="219.0" y="0.0" type="line"/>
      <point x="603.0" y="0.0" type="line"/>
      <point x="603.0" y="308.0" type="line"/>
      <point x="816.0" y="362.0" type="line"/>
      <point x="816.0" y="750.0" type="line"/>
      <point x="477.0" y="750.0" type="line"/>
      <point x="477.0" y="397.0" type="line"/>
      <point x="441.0" y="385.0" type="line"/>
      <point x="384.0" y="385.0" type="line"/>
      <point x="345.0" y="397.0" type="line"/>
      <point x="345.0" y="750.0" type="line"/>
      <point x="6.0" y="750.0" type="line"/>
      <point x="6.0" y="362.0" type="line"/>
      <point x="219.0" y="308.0" type="line"/>
    </contour>
  </outline>
</glyph>
<glyph name="E.alt1" format="2">
  <advance width="754.0"/>
  <outline>
    <contour>
      <point x="41.0" y="0.0" type="line"/>
      <point x="730.0" y="0.0" type="line"/>
      <point x="731.0" y="140.0" type="line"/>
      <point x="444.0" y="140.0" type="line"/>
      <point x="443.0" y="140.0" type="line"/>
      <point x="380.0" y="140.0" type="line"/>
      <point x="380.0" y="292.0" type="line"/>
      <point x="673.0" y="292.0" type="line"/>
      <point x="673.0" y="455.0" type="line"/>
      <point x="380.0" y="455.0" type="line"/>
      <point x="380.0" y="604.0" type="line"/>
      <point x="442.0" y="604.0" type="line"/>
      <point x="442.0" y="604.0" type="line"/>
      <point x="729.0" y="604.0" type="line"/>
      <point x="729.0" y="750.0" type="line"/>
      <point x="41.0" y="750.0" type="line"/>
    </contour>
  </outline>
</glyph>
<glyph name="F.alt1" format="2">
  <advance width="808.0"/>
  <outline>
    <contour>
      <point x="41.0" y="0.0" type="line"/>
      <point x="380.0" y="0.0" type="line"/>
      <point x="380.0" y="253.0" type="line"/>
      <point x="642.0" y="253.0" type="line"/>
      <point x="642.0" y="386.0" type="line"/>
      <point x="380.0" y="386.0" type="line"/>
      <point x="380.0" y="653.0" type="line"/>
      <point x="456.0" y="653.0" type="line"/>
      <point x="456.0" y="490.0" type="line"/>
      <point x="795.0" y="490.0" type="line"/>
      <point x="795.0" y="750.0" type="line"/>
      <point x="41.0" y="750.0" type="line"/>
    </contour>
  </outline>
</glyph>
<glyph name="L.alt2" format="2">
  <advance width="814.0"/>
  <outline>
    <contour>
      <point x="41.0" y="0.0" type="line"/>
      <point x="779.0" y="-2.0" type="line"/>
      <point x="779.0" y="287.0" type="line"/>
      <point x="440.0" y="287.0" type="line"/>
      <point x="440.0" y="95.0" type="line"/>
      <point x="380.0" y="97.0" type="line"/>
      <point x="380.0" y="750.0" type="line"/>
      <point x="41.0" y="750.0" type="line"/>
    </contour>
  </outline>
</glyph>
<glyph name="S.alt" format="2">
  <advance width="711.0"/>
  <outline>
    <contour>
      <point x="11.0" y="0.0" type="line"/>
      <point x="680.0" y="0.0" type="line"/>
      <point x="680.0" y="427.0" type="line"/>
      <point x="330.0" y="427.0" type="line"/>
      <point x="330.0" y="509.0" type="line"/>
      <point x="368.0" y="604.0" type="line"/>
      <point x="669.0" y="604.0" type="line"/>
      <point x="669.0" y="750.0" type="line"/>
      <point x="96.0" y="750.0" type="line"/>
      <point x="11.0" y="545.0" type="line"/>
      <point x="11.0" y="281.0" type="line"/>
      <point x="361.0" y="281.0" type="line"/>
      <point x="361.0" y="146.0" type="line"/>
      <point x="11.0" y="146.0" type="line"/>
    </contour>
  </outline>
</glyph>
<glyph name="S.alt1" format="2">
  <advance width="810.0"/>
  <outline>
    <contour>
      <point x="29.0" y="0.0" type="line"/>
      <point x="769.0" y="0.0" type="line"/>
      <point x="769.0" y="421.0" type="line"/>
      <point x="370.0" y="421.0" type="line"/>
      <point x="370.0" y="487.0" type="line"/>
      <point x="396.0" y="654.0" type="line"/>
      <point x="434.0" y="654.0" type="line"/>
      <point x="434.0" y="488.0" type="line"/>
      <point x="763.0" y="488.0" type="line"/>
      <point x="763.0" y="750.0" type="line"/>
      <point x="116.0" y="750.0" type="line"/>
      <point x="31.0" y="533.0" type="line"/>
      <point x="31.0" y="279.0" type="line"/>
      <point x="430.0" y="279.0" type="line"/>
      <point x="430.0" y="97.0" type="line"/>
      <point x="368.0" y="97.0" type="line"/>
      <point x="368.0" y="205.0" type="line"/>
      <point x="29.0" y="205.0" type="line"/>
    </contour>
  </outline>
</glyph>
